<svg version="1.1" id="Warstwa_1" xmlns="http://www.w3.org/2000/svg" xmlns:xlink="http://www.w3.org/1999/xlink" x="0px" y="0px"
	 width="1095.258px" height="1094.732px" viewBox="0 0 1095.258 1094.732" enable-background="new 0 0 1095.258 1094.732"
	 xml:space="preserve">
	<path fill-rule="evenodd" clip-rule="evenodd" fill="#144070" d="M0.031,553.125C-3.132,255.258,232.807,11.017,526.824,0.373
		c308.5-11.167,554.646,229.988,567.847,520.954c14.134,311.495-228.768,560.044-520.823,573.405
		C259.017,1109.136,2.473,858.448,0.031,553.125z M152.021,853.166c38.366-21.575,78.435-38.259,119.581-51.269
		c-6.764-29.289-13.421-58.115-20.153-87.264c17.486,0,33.807,0,49.53,0c6.038,24.666,11.989,48.976,18.079,73.849
		c34.083-8.324,67.752-14.808,101.843-18.364c34.117-3.561,68.368-5.841,103.104-8.727c0-15.057,0-30.97,0-46.707
		c16.04,0,31.606,0,47.595,0c0,16.081,0,31.881,0,48c69.086,1.596,136.992,9.508,203.938,25.715c0.473-1.575,0.84-2.625,1.103-3.701
		c5.479-22.4,11.01-44.79,16.322-67.231c0.599-2.528,1.509-3.137,3.906-3.115c12.001,0.106,24.002,0.049,36.003,0.049
		c3.23,0,6.461,0,10.065,0c-5.015,29.716-11.98,58.588-20.053,87.379c42.015,13.2,81.992,29.829,120.289,51.386
		c63.513-83.301,98.276-176.846,103.928-281.869c-39.822,0-78.985,0-118.164,0c0-16.056,0-31.601,0-47.574
		c39.443,0,78.612,0,118.461,0c-1.32-13.778-2.258-27.11-3.931-40.349c-4.631-36.632-13.332-72.31-26.062-106.981
		c-17.456-47.545-41.579-91.436-72.313-131.697c-1.239-1.624-2.08-2.629-4.461-1.295c-35.803,20.044-73.46,35.814-112.457,48.461
		c-1.729,0.561-3.429,1.212-5.045,1.787c3.721,14.653,7.578,28.834,10.884,43.144c3.33,14.42,6.111,28.968,9.159,43.583
		c-1.135,0.252-1.604,0.447-2.073,0.448c-15.001,0.022-30.002-0.001-45.003,0.066c-2.109,0.009-2.61-0.93-3.029-2.834
		c-3.125-14.25-6.264-28.499-9.695-42.677c-2.303-9.515-5.091-18.914-7.708-28.535c-67.302,16.408-135.251,24.025-204.318,25.759
		c0,16.208,0,32.018,0,48.04c-15.974,0-31.525,0-47.552,0c0-16.07,0-31.982,0-48.047c-69.152-1.708-137.089-9.501-204.737-25.939
		c-6.094,24.936-12.082,49.441-18.07,73.947c-16.069,0-32.269,0-49.554,0c6.772-29.333,13.433-58.181,20.175-87.378
		c-41.245-12.936-81.288-29.646-119.602-51.144C88.422,325.522,53.699,419.099,47.999,523.962c39.901,0,79.091,0,118.417,0
		c0,15.903,0,31.457,0,47.432c-39.428,0-78.62,0-118.416,0C53.747,676.316,88.52,769.886,152.021,853.166z M571.655,810.294
		c0,78.615,0,156.641,0,234.84c0.772-0.073,1.262-0.076,1.732-0.171c16.547-3.313,32.042-9.418,46.622-17.836
		c28.023-16.18,50.674-38.355,70.419-63.681c26.276-33.706,46.12-71.067,62.325-110.467c2.549-6.194,4.964-12.443,7.555-18.95
		C698.073,819.182,635.383,811.913,571.655,810.294z M571.62,284.873c63.799-1.496,126.563-8.888,188.608-23.668
		c-11.1-29.627-24.003-57.956-39.804-84.915c-18.934-32.305-41.094-62.037-69.79-86.459c-20.993-17.866-44.289-31.496-71.286-38.166
		c-2.483-0.613-5.023-0.998-7.729-1.527C571.62,128.575,571.62,206.516,571.62,284.873z M335.215,834.158
		c0.463,1.454,0.78,2.651,1.221,3.802c11.124,29.022,24.108,57.166,40.048,83.883c18.664,31.282,40.406,60.086,68.353,83.795
		c18.934,16.063,39.774,28.818,63.738,35.969c4.918,1.468,9.951,2.552,15.06,3.845c0-78.724,0-156.761,0-234.776
		C493.342,807.632,376.062,822.245,335.215,834.158z M523.659,284.868c0-78.45,0-156.489,0-234.684
		c-1.429,0.203-2.674,0.3-3.882,0.562c-13.856,3.008-27.009,7.932-39.506,14.61c-30.787,16.452-55.119,40.235-76.328,67.497
		c-22.658,29.122-40.399,61.148-55.273,94.809c-4.828,10.927-9.205,22.053-13.954,33.487
		C397.128,276.003,459.895,283.397,523.659,284.868z M183.569,889.92c28.707,30.565,60.411,56.936,95.416,79.365
		c34.96,22.399,72.106,40.18,111.743,52.819c-48.065-50.339-79.567-110.395-103.534-174.929
		C251.308,858.406,216.999,872.13,183.569,889.92z M183.571,205.288c33.353,17.799,67.858,31.568,103.708,42.772
		c11.793-32.272,25.692-63.279,42.74-92.822c17.097-29.629,36.929-57.237,60.709-82.062c-34.911,11.002-67.853,26.187-99.161,44.952
		C251.606,142.077,215.73,171.085,183.571,205.288z M911.395,205.146c-28.686-30.558-60.375-56.873-95.317-79.299
		C784.474,105.563,715,72.937,704.288,73.509c24.045,24.625,43.883,52.215,60.965,81.847c17.018,29.521,30.889,60.508,42.58,92.404
		C826.722,244.061,892.238,217.105,911.395,205.146z M911.604,889.958c-33.499-17.909-67.949-31.646-103.627-42.78
		c-24.006,64.67-55.452,124.445-103.131,174.763C784.824,995.591,853.327,951.418,911.604,889.958z"/>
	<path fill-rule="evenodd" clip-rule="evenodd" fill="#144070" d="M452.688,431.746c1.552,0,2.896,0,4.239,0
		c15.499,0,30.998,0.07,46.495-0.064c2.833-0.025,4.409,0.707,5.804,3.352c25.193,47.761,50.507,95.458,75.802,143.165
		c0.738,1.392,1.544,2.749,3.035,3.992c0-49.998,0-99.994,0-150.217c18.423,0,36.357,0,54.575,0c0,77.023,0,153.942,0,231.165
		c-1.053,0.083-2.124,0.239-3.194,0.24c-16.124,0.015-32.247-0.053-48.369,0.077c-2.492,0.021-3.715-0.78-4.855-2.943
		c-25.544-48.423-51.166-96.805-76.779-145.191c-0.452-0.854-0.972-1.671-1.954-3.347c0,50.918,0,100.916,0,151.164
		c-18.408,0-36.458,0-54.799,0C452.688,586.145,452.688,509.142,452.688,431.746z"/>
	<path fill-rule="evenodd" clip-rule="evenodd" fill="#144070" d="M214.335,663.39c0-77.343,0-154.174,0-231.372
		c1.11-0.093,2.179-0.261,3.248-0.261c24.996,0.001,49.996-0.21,74.988,0.106c21.093,0.268,41.485,4.141,60.101,14.668
		c24.864,14.06,39.942,35.455,43.938,63.545c3.579,25.156,3.896,50.75-0.106,75.842c-5.961,37.372-29.137,60.405-64.728,71.514
		c-13.556,4.231-27.537,5.929-41.717,5.948c-23.871,0.032-47.744,0.009-71.615,0.009C217.206,663.39,215.968,663.39,214.335,663.39z
		M271.785,469.941c0,52.166,0,103.19,0,154.654c13.774-0.284,27.389,1.008,40.7-2.794c12.623-3.605,21.204-11.635,24.62-24.278
		c1.968-7.284,3.336-14.92,3.578-22.443c0.544-16.97,0.36-33.968,0.175-50.953c-0.064-5.966-0.665-11.973-1.59-17.872
		c-3.09-19.705-13.437-31.125-32.056-33.88C295.682,470.669,283.893,470.711,271.785,469.941z"/>
	<path fill-rule="evenodd" clip-rule="evenodd" fill="#144070" d="M880.714,499.897c-19.043,0-37.741,0-56.436,0
		c-0.479-3.538-0.687-6.906-1.415-10.157c-3.174-14.148-13.346-22.172-28.937-22.847c-8.63-0.374-17.072,0.639-24.305,5.83
		c-14.733,10.572-13.476,30.348,2.541,40.785c10.549,6.875,22.299,11.077,34.194,14.896c15.952,5.122,31.465,11.166,45.539,20.503
		c30.13,19.99,33.896,52.604,24.319,76.995c-6.149,15.659-18.492,25.45-33.619,31.865c-20.407,8.653-41.852,10.066-63.6,8.138
		c-17.452-1.549-34.15-5.979-49.227-15.289c-17.936-11.077-30.256-26.226-33.696-47.576c-0.633-3.921-0.842-7.91-1.285-12.245
		c19.413,0,38.42,0,57.333,0c0.647,4.662,1.005,9.262,1.958,13.734c2.541,11.921,9.94,19.334,21.773,22.103
		c10.33,2.417,20.766,3.237,31.074-0.031c10.439-3.311,15.581-10.765,16.292-21.748c0.858-13.261-4.39-22.933-16.377-28.413
		c-9.16-4.188-18.581-7.88-28.084-11.227c-17.202-6.057-34.411-12.026-49.337-22.91c-11.334-8.264-20.525-18.338-24.794-32.011
		c-8.305-26.598,3.544-53.887,29.363-68.058c21.763-11.943,45.254-14.964,69.604-13.184c17.864,1.306,34.598,6.245,49.356,16.683
		c16.796,11.878,25.989,28.235,27.849,48.713c0.112,1.242,0.089,2.497,0.094,3.747C880.896,498.672,880.797,499.152,880.714,499.897z
		"/>
</svg>
