<svg version="1.1" id="Warstwa_1" xmlns="http://www.w3.org/2000/svg" xmlns:xlink="http://www.w3.org/1999/xlink" x="0px" y="0px" width="422.947px" height="364.954px" viewBox="0 0 422.947 364.954" enable-background="new 0 0 422.947 364.954" xml:space="preserve">
	<path fill="#0354CC" d="M237.97,1c5.649,4.359,12.184,7.253,18.215,10.982c2.499,1.545,5.069,2.974,8.121,4.755
	c-35.911,20.74-71.41,41.243-107.143,61.879c-8.858-5.113-17.592-10.154-26.503-15.298c0.668-1.623,2.01-1.982,3.083-2.604
	c32.509-18.799,65.025-37.585,97.535-56.384c1.663-0.961,3.555-1.62,4.691-3.331C236.637,1,237.304,1,237.97,1z" />
	<path fill="#0555CC" d="M1,286.963c1.894-0.545,3.784-0.907,5.795-0.899c15.329,0.058,30.659,0.021,45.988,0.037
	c5.542,0.007,6.037,0.521,6.076,5.978c0.016,2.166,0.028,4.332-0.003,6.498c-0.063,4.52-0.744,5.271-5.159,5.315
	c-6.164,0.06-12.33,0.015-18.495,0.015c-4.299,0-8.599,0-13.16,0c0,5.122,0,9.861,0,14.602c1.133,1.121,2.539,0.646,3.805,0.652
	c8.163,0.047,16.328,0.031,24.493,0.02c2.003-0.004,4.022-0.131,6.073,1.863c-0.015,4.886,1.295,10.252-1.077,15.854
	c-11.185,0-22.12,0-33.565,0c0,5.709,0,10.98,0,16.252c0,2.5,0.012,4.998-0.007,7.498c-0.019,2.299-0.982,4.057-3.445,4.018
	C12.543,364.577,6.721,365.4,1,363.956C1,338.292,1,312.627,1,286.963z" />
	<path fill="#0555CC" d="M286.003,321.647c-3.496,4.12-4.957,8.204-7.133,11.844c-1.446,2.42-2.813,4.903-3.997,7.459
	c-1.764,3.813-4.521,5.084-8.746,5.016c-3.968-0.063-6.042-1.721-7.723-5c-3.083-6.014-6.438-11.891-10.372-17.688
	c-0.065,1.366-0.186,2.733-0.188,4.1c-0.017,10.488,0.009,20.975-0.017,31.461c-0.012,5.168-0.666,5.826-5.653,5.879
	c-2.995,0.033-5.991-0.01-8.988,0.013c-1.673,0.013-3.342,0.063-5.037-1.452c0-24.936,0-50.178,0-75.521
	c0.273-0.295,0.551-0.881,0.952-0.985c5.063-1.315,10.208-0.713,15.311-0.388c2.002,0.129,2.797,2.105,3.699,3.728
	c5.326,9.573,10.688,19.126,16.054,28.679c0.715,1.273,1.506,2.504,2.495,4.142c4.229-7.497,8.298-14.696,12.354-21.905
	c2.033-3.617,4.125-7.205,6.031-10.888c1.45-2.8,3.417-4.261,6.728-4.091c3.966,0.205,7.952,0.05,11.318,0.05
	c2.424,1.468,2.657,3.207,2.656,5.127c-0.021,22.806,0.007,45.61-0.03,68.417c-0.007,4.122-0.908,5.092-4.95,5.04
	c-4.773-0.062-9.614,0.623-14.763-0.704C286.003,350.068,286.003,336.358,286.003,321.647z" />
	<path fill="#0354CC" d="M150.226,287.938c1.294-2.057,3.032-1.833,4.684-1.834c9.985-0.004,19.971-0.125,29.953,0.048
	c6.179,0.106,12.169,1.302,17.779,4.173c16.328,8.361,16.039,32.666,2.291,41.262c-0.98,0.613-1.926,1.281-3.404,2.271
	c5.125,9.348,10.266,18.725,15.297,27.9c-0.547,2.604-2.207,2.988-4.194,2.971c-4.159-0.033-8.321-0.078-12.479,0.014
	c-3.188,0.067-5.27-1.223-6.688-4.139c-3.774-7.758-7.731-15.428-11.694-23.287c-3.45,0-6.866,0-10.754,0c0,8.762,0,17.34,0,26.001
	c-4.75,2.474-9.474,1.093-13.999,1.351c-2.233,0.127-4.704,0.651-6.789-1.547C150.226,338.193,150.226,313.106,150.226,287.938z
	 M171.085,320.825c4.906,0,9.363,0.238,13.784-0.063c5.191-0.354,7.988-3.364,8.241-8.17c0.287-5.479-1.894-8.822-6.883-9.904
	c-5-1.085-10.045-0.337-15.143-0.501C171.085,308.702,171.085,314.475,171.085,320.825z" />
	<path fill="#0354CC" d="M136.938,326.313c0,4.994,0.456,9.301-0.321,14.169c-2,12.535-9.298,20.66-21.833,23.685
	c-10.983,2.651-21.752,2.424-32.067-2.742c-8.755-4.385-13.441-11.719-14.639-21.23c-1.229-9.775-1.146-19.625,0.015-29.395
	c1.159-9.746,6.196-17.258,15.101-21.493c12.749-6.065,25.781-6.044,38.487,0.182c9.641,4.724,14.366,13.044,15.224,23.548
	c0.337,4.135,0.055,8.322,0.055,12.486L136.938,326.313z M89.118,325.293c0.137,4.498-0.31,9.154,0.775,13.762
	c1.602,6.802,6.201,10.234,13.433,9.833c6.729-0.373,10.988-4.478,11.741-11.263c0.9-8.127,0.905-16.248,0.012-24.377
	c-0.717-6.518-4.976-10.832-11.215-11.276c-7.567-0.539-12.32,2.853-13.957,9.772C88.856,316.186,89.218,320.672,89.118,325.293z" />
	<path fill="#0354CC" d="M377.853,286.793c0,8.752,0,17.051,0,25.293c1.931,0.44,2.123-1.035,2.754-1.821
	c5.412-6.748,10.88-13.452,16.112-20.335c2.12-2.789,4.479-4.117,8.033-3.893c4.149,0.264,8.328,0.039,12.494,0.07
	c2.399,0.02,2.398,0.061,4.997,2.611c-8.815,11.484-17.688,23.037-26.852,34.975c9.666,12.807,19.338,25.619,28.802,38.156
	c-1.104,2.781-2.931,2.872-4.809,2.871c-4.665-0.004-9.332-0.057-13.997,0.02c-2.891,0.047-4.965-0.979-6.763-3.373
	c-5.395-7.188-11.028-14.195-16.548-21.287c-1.011-1.299-1.859-2.731-3.878-4.084c0,9.385,0,18.346,0,26.971
	c-3.927,2.191-15.158,2.387-20.156,0.535c0-25.293,0-50.711,0-76.699C364.659,285.674,371.078,285.727,377.853,286.793z" />
	<path fill="#0454CC" d="M265.421,126.971c0,10.701,0,20.785,0,31.152c-35.192,20.314-70.382,40.625-106.063,61.224
	c0-10.608,0-20.644,0-31.166C194.382,167.968,229.691,147.591,265.421,126.971z" />
	<path fill="#0354CC" d="M265.487,19.961c0,10.661,0,20.628,0,31.153c-35.147,20.289-70.475,40.681-106.294,61.357
	c0-10.717,0-20.789,0-31.158C194.32,61.038,229.542,40.709,265.487,19.961z" />
	<path fill="#0354CC" d="M267.279,160.92c8.896,5.142,17.764,10.268,27.218,15.733c-35.546,20.528-70.607,40.776-105.942,61.184
	c-8.907-5.141-17.736-10.235-27.238-15.719C197.002,201.508,232.044,181.271,267.279,160.92z" />
	<path fill="#0455CC" d="M159.287,117.238c20.865-12.036,41.821-24.125,63.224-36.471c0,10.695,0,20.765,0,31.154
	c-20.846,12.024-41.805,24.113-63.224,36.468C159.287,137.691,159.287,127.619,159.287,117.238z" />
	<path fill="#0253CC" d="M264.965,122.395c-20.816,12.009-41.504,23.942-62.718,36.18c0-10.651,0-20.681,0-31.119
	c20.581-11.872,41.392-23.877,62.718-36.18C264.965,102.004,264.965,111.958,264.965,122.395z" />
	<path fill="#0253CC" d="M341.911,287.144c0,25.606,0,51,0,76.966c-7.052,0.905-13.807,1.002-20.819-0.066
	c0-25.922,0-51.166,0-76.315c0.616-1.043,1.51-1.442,2.525-1.574C327.659,285.629,338.779,286.157,341.911,287.144z" />
	<path fill="#0656CC" d="M265.524,55.805c0,10.73,0,20.705,0,31.135c-12.786,7.381-25.687,14.828-39.133,22.591
	c0-10.629,0-20.642,0-31.171C239.094,71.038,252.11,63.536,265.524,55.805z" />
	<path fill="#0253CC" d="M198.12,161.12c-13.091,7.55-25.701,14.821-38.813,22.382c0-10.603,0-20.619,0-31.109
	c12.403-7.156,25.126-14.497,38.332-22.116c0.95,5.614,0.343,10.676,0.458,15.697C198.208,150.948,198.12,155.927,198.12,161.12z" />
	<path fill="#0455CC" d="M128.302,170.201c0-10.847,0-21.443,0-32.703c5.019,1.892,9.104,4.895,13.468,7.323
	c4.34,2.415,8.633,4.914,13.18,7.509c0,10.803,0,21.67,0,33.188C145.759,180.235,137.046,175.227,128.302,170.201z" />
	<path fill="#0857CD" d="M296.33,173.792c-9.158-5.26-18.022-10.352-27.074-15.549c0-10.242,0-20.5,0-31.198
	c9.08,5.221,17.97,10.331,27.074,15.566C296.33,152.854,296.33,163.07,296.33,173.792z" />
	<path fill="#0354CC" d="M269.242,54.487c9.167,5.286,17.878,10.308,26.646,15.362c0,10.775,0,21.35,0,32.535
	c-9.151-5.266-17.875-10.286-26.646-15.334C269.242,76.296,269.242,65.734,269.242,54.487z" />
	<path fill="#0253CC" d="M128.219,66.03c9.093,5.248,17.845,10.298,26.768,15.448c0,10.106,0,20.208,0,31.049
	c-9.18-5.26-17.904-10.258-26.768-15.338C128.219,86.983,128.219,76.862,128.219,66.03z" />
	<path fill="#0555CC" d="M128.349,132.713c0-10.655,0-20.553,0-31.07c9.164,5.262,17.886,10.269,26.679,15.318
	c0,10.268,0,20.359,0,31.132C145.852,142.803,137.051,137.729,128.349,132.713z" />
	<path fill="#0354CC" d="M269.157,122.418c-0.05-0.998-0.125-1.813-0.125-2.627c-0.009-9.12-0.005-18.24-0.005-28.193
	c9.605,4.668,18.005,10.314,26.912,15.108c0,10.157,0,20.081,0,30.787C286.464,132.869,278.016,127.333,269.157,122.418z" />
</svg>
