<svg version="1.1" id="Warstwa_1" xmlns="http://www.w3.org/2000/svg" xmlns:xlink="http://www.w3.org/1999/xlink" x="0px" y="0px" width="182.682px" height="163.285px" viewBox="0 0 182.682 163.285" enable-background="new 0 0 182.682 163.285" xml:space="preserve">
	<polygon fill="#FFFFFF" points="5.843,39.643 79.75,6.82 79.75,156.466 5.843,123.143 " />
	<polygon fill="#F27B01" points="178.5,125.25 82.5,153.84 82.5,9.445 178.5,38 " />
	<path fill="#646363" d="M159.845,53.938v6.268c-17.97-2.242-35.94-4.484-54.066-6.746c0-3.491,0-6.425,0-9.904
	C123.971,47.042,142.152,50.546,159.845,53.938z" />
	<path fill="#646363" d="M105.859,117.402c-0.5-3.475-0.316-6.407-0.16-9.902c18.024-2.121,36.551-4.227,54.34-6.32v6.125
	C142.094,110.648,124.116,114,105.859,117.402z" />
	<path fill="#646363" d="M0.201,123.082c0-28.48,0-56.433,0-84.672C27.042,25.604,53.719,12.877,80.708,0
	c33.808,11.604,67.718,23.243,101.974,35c0,30.268,0,60.498,0,91.396c-33.758,12.213-67.601,24.455-101.969,36.89
	C54.148,150.021,27.268,136.598,0.201,123.082z M57.464,18.704l-0.38,98.463l-8.399-2.628c0-30.24,0-60.526,0-91.538
	c-6.336,3.043-11.967,5.746-17.838,8.566l0.029,78.099l-7.362-2.984v-71.63c-5.394,2.588-10.141,4.867-14.818,7.113
	c0,25.906,0,51.493,0,77.106c22.77,10.943,45.317,21.781,68.39,32.873c0-48.092,0-95.186,0-142.885
	C70.31,12.522,63.923,15.596,57.464,18.704z M85.911,76.328c29.838-0.578,58.992,1.533,88.398,0.936c0-12.884,0-25.3,0-38.16
	c-29.365-9.031-58.688-18.05-88.398-27.188C85.911,33.699,85.911,54.577,85.911,76.328z M174.19,122.311c0-12.941,0-25.343,0-37.992
	c-29.684-0.397-58.999,0.654-88.353,1.258c0,21.521,0,42.447,0,64.052C115.61,140.422,144.975,131.343,174.19,122.311z" />
</svg>
