<?xml version="1.0" encoding="UTF-8" standalone="no"?>
<!-- Created with Inkscape (http://www.inkscape.org/) -->

<svg
   width="110.42089mm"
   height="110.42087mm"
   viewBox="0 0 110.42089 110.42087"
   version="1.1"
   id="svg1"
   xml:space="preserve"
   inkscape:version="1.4.3 (fcd0343856, 2026-01-01)"
   sodipodi:docname="unleash-logo.svg"
   xmlns:inkscape="http://www.inkscape.org/namespaces/inkscape"
   xmlns:sodipodi="http://sodipodi.sourceforge.net/DTD/sodipodi-0.dtd"
   xmlns="http://www.w3.org/2000/svg"
   xmlns:svg="http://www.w3.org/2000/svg"><sodipodi:namedview
     id="namedview1"
     pagecolor="#505050"
     bordercolor="#eeeeee"
     borderopacity="1"
     inkscape:showpageshadow="0"
     inkscape:pageopacity="0"
     inkscape:pagecheckerboard="0"
     inkscape:deskcolor="#505050"
     inkscape:document-units="mm"
     inkscape:zoom="1.2239391"
     inkscape:cx="16.340683"
     inkscape:cy="73.94159"
     inkscape:window-width="3840"
     inkscape:window-height="2123"
     inkscape:window-x="0"
     inkscape:window-y="0"
     inkscape:window-maximized="1"
     inkscape:current-layer="layer1" /><defs
     id="defs1" /><g
     inkscape:label="Layer 1"
     inkscape:groupmode="layer"
     id="layer1"><g
       id="g1"
       transform="matrix(6.9991189,0,0,6.9991189,-116.38269,-202.05327)"><path
         d="m 24.516382,44.644782 c 4.35655,0 7.888208,-3.531658 7.888208,-7.888208 0,-4.356523 -3.531658,-7.888187 -7.888208,-7.888187 -4.356524,0 -7.888191,3.531664 -7.888191,7.888187 0,4.35655 3.531667,7.888208 7.888191,7.888208 z"
         fill="#1a4049"
         id="path1"
         style="stroke-width:0.264583" /><path
         d="m 25.643401,33.375517 v 2.254038 2.254065 h 2.253059 v -2.254065 -2.254038 z"
         fill="#ffffff"
         id="path2"
         style="stroke-width:0.264583" /><path
         d="m 23.389363,35.629555 v -2.254038 h -2.254039 v 2.254038 2.254065 2.253059 h 2.254039 2.254064 V 37.88362 h -2.254064 z"
         fill="#ffffff"
         id="path3"
         style="stroke-width:0.264583" /><path
         d="m 25.643401,33.375517 v 2.254038 2.254065 h 2.253059 v -2.254065 -2.254038 z"
         fill="#ffffff"
         id="path4"
         style="stroke-width:0.264583" /><path
         d="m 23.389363,35.629555 v -2.254038 h -2.254039 v 2.254038 2.254065 2.253059 h 2.254039 2.254064 V 37.88362 h -2.254064 z"
         fill="#ffffff"
         id="path5"
         style="stroke-width:0.264583" /><path
         d="m 27.897466,37.883673 h -2.254065 v 2.254038 h 2.254065 z"
         fill="#817afe"
         id="path6"
         style="stroke-width:0.264583" /></g></g></svg>
