<svg viewBox="0 0 468 652" xmlns="http://www.w3.org/2000/svg" xml:space="preserve" role="image"
  preserveAspectRatio="xMidYMid meet">
  <title>Tymoteusz Czech</title>
  <path fill="#e8e8e8" style="fill:var(--portrait-background, #e8e8e8)"
    d="M282.588 145.081c4.724.69 9.119 2.678 12.973 5.971 16.54 14.135 19.331 68.115 12.688 89.888a139.849 139.849 0 0 1-2.393 7.095c-1.645 4.506-4.503 12.228-7.308 16.038-.77 1.046-1.73 2.08-2.792 3.026l5.095 50.844c12.965 11.544 19.685 16.065 38.666 41.002 1.675 2.202 5.974 7.459 6.816 9.988.323.97.611 2.014.872 3.076l120.787 45.624-194.927 29.694 5.155-83.022-20.039-271.968-38.634-62.786s34.704 3.766 50.096 50.912c2.029 7.526 3.766 15.154 5.365 22.777 2.907 13.847 5.39 27.844 7.58 41.841" />
  <path fill="#b43c3c"
    d="m98.437 442.787 7.572-8.336-6.78-6.531c-4.013-3.867-9.961-9.999-12.604-14.79-1.406-2.549-2.676-5.334-3.918-7.969a700.866 700.866 0 0 1-5.804-12.632c-1.94-4.326-3.852-8.678-5.651-13.066-1.121-2.736-2.784-6.587-3.267-9.479-.477-2.861-1.121-5.788-1.848-8.619a456.882 456.882 0 0 1-20.205-40 272.707 272.707 0 0 1-5.115-12.258c-2.718-7.034-4.981-14.316-7.04-21.57-3.926-13.82-7.337-28.17-10.113-42.294l-1.983-5.082c-2.088-2.957-5.277-7.434-6.328-10.32-.884-2.429-1.446-5.958-1.924-8.53-.474-2.563-1.26-6.252-1.26-8.82 0-1.94.608-4.346 1.299-6.488-3.323-14.226-5.915-29.472-7.439-43.871-.29-2.75-.54-5.507-.734-8.267-.354-5.02-.576-10.1-.602-15.181l-3.501 4.203L0 123.824s1.476-58.292 44.947-84.873C88.417 12.369 165.928 404.58 165.928 404.58L59.956 503.196l-42.108-7.9 80.59-52.51" />
  <path fill="#f1cd5f"
    d="M32.765 159.775s-5.878-37.946 2.672-56.118c8.552-18.17 137.888-58.254 149.646-63.598 11.758-5.346 48.1 49.704 53.445 60.392 5.344 10.689 29.13 59.99 29.13 59.99s32.938-9.698 34.706 34.434c0 0 3.773 28.365-5.847 46.537 0 0-13.229 14.965-13.229 16.835 0 1.87 10.287 115.976 10.287 115.976s-9.681 35.237-15.56 46.194c-5.878 10.955-14.204 28.019-14.204 28.019s-44.416-11.74-79.643-16.032c-35.227-4.292-115.596-120.175-151.403-272.63" />
  <path fill="#e8e8e8"
    d="M250.573 125.121c8.148 16.8 17.084 35.32 17.084 35.32s15.894-4.673 26.194 7.264c4.461 6.916 6.944 14.799 8.086 21.518.2 1.78.347 3.658.427 5.652 0 0 3.773 28.365-5.847 46.537 0 0-13.229 14.965-13.229 16.835 0 .182.099 1.432.275 3.521-1.444.255-3.184.384-4.68.741 2.442.306 4.852 1.344 5.101 4.207.52 5.973 10.062 126.18 10.062 126.18l-4.958 9.34-2.193-1.104-12.746-132.035c-2.124 5.788-4.886 16.634-7.238 27.08-2.354 10.446-4.271 44.975-25.534 63.263 0 0 6.948-39.813 5.88-47.83-1.069-8.017-17.102-56.117-17.102-64.669 0-8.55 4.545-35.806 4.278-38.48-.268-2.672-14.828-14.588-14.828-14.588l-27.793-13.069 6.412-3.943 17.241-9.28s-6.413-18.705-7.482-24.584c-1.07-5.878-11.758-63.332-14.966-69.745-3.206-6.413-15.498-20.31-15.498-20.31s26.989 5.345 33.937 17.103c3.976 6.728 23.305 33.446 39.117 55.076zm-93.696 57.594-27.506.125s12.626-8.505 18.84-10.108c6.212-1.605 25.452-4.912 29.06-4.51 3.608.4 13.509 5.426 13.509 5.426zm-22.133 85.57s3.707 1.654 4.71 3.408c1.002 1.754 1.603 3.758 1.603 3.758s-2.154 1.552-3.406 1.352c-1.254-.2-3.608-.651-4.259-2.004-.652-1.352 1.352-6.514 1.352-6.514zm18.385 64.283s.402-3.307.752-4.059c.351-.752 11.174-5.512 13.328-5.612 2.155-.1 3.558.2 3.558.2s-.652 1.704-2.054 3.058c-1.404 1.352-4.81 4.658-15.584 6.413zM264.98 187.743s1.47-8.686 6.145-15.099c4.678-6.413 10.958-.267 9.622 6.013-1.336 6.279-3.268 13.012-2.406 15.9.862 2.888 9.352 6.814 13.362 11.358 4.008 4.542 6.012 12.157-1.203 18.705-7.216 6.547-6.815 10.69-7.35 13.763-.534 3.073-8.95 4.81-9.618-.535-.67-5.345 1.47-7.883 2.003-14.163.534-6.28-.267-7.884-.936-14.43-.667-6.547-1.47-14.832-4.142-12.827-2.672 2.004-6.68.401-5.477-8.685" />
  <path fill="#b43c3c"
    d="m63.941 111.553 11.608 11.903s-12.008 9.743-12.409 16.957c-.4 7.216 5.461 53.311 5.461 53.311l13.278 15.033-8.9-14.33s21.426-1.18 34.454-8.807c0 0 12.427 2.193 15.434 2.395 3.005.2 41.285-9.22 51.105-9.822 9.821-.601 17.483-4.242 17.483-4.242s20.497 8.552 23.404 11.357c2.906 2.805 7.314 8.819 7.314 8.819s-9.418-.602-18.638-3.908c-9.219-3.307-20.944 7.114-20.944 7.114l8.574.454s9.563 4.557 11.868 4.657c2.306.1 6.514-.701 6.514-.701s-5.211 4.208-5.912 4.709c-.702.501-16.052-2.19-16.052-2.19s-4.982-5.15-7.942-5.457c-2.961-.306-23.806 4.24-26.212 5.844-2.404 1.604-5.31 5.311-5.31 5.311l.601 4.81 2.605.3 7.842.677-.4 5.361s13.428 4.175 27.157-1.737l2.437 5.913s-9.853 5.444-25.385 3.84c-15.532-1.603-21.044-11.824-21.044-11.824l-1.383-4.927s-8.337 1.82-10.241 5.328c-1.904 3.507 1.704 11.624 1.804 13.628.1 2.004-7.516 8.618-7.516 8.618s-5.71-24.952-7.313-29.26c-1.604-4.31-18.639-7.315-18.939 2.906 0 0 9.019 58.923 9.22 59.824.2.902-3.808 11.724-1.604 16.334 2.204 4.61 13.128 6.514 14.43 6.214 1.302-.301 9.12-12.126 11.525-13.128 2.405-1.002 10.522-.702 13.126-1.904 2.606-1.202-.2-5.312-.3-7.917-.1-2.605 1.503-9.119 1.503-9.119s34.975 11.624 38.081 14.931c3.107 3.307 5.914 7.115 5.914 7.115l-34.774-10.522s-2.204 11.223-4.208 12.927c-2.005 1.703-6.013 1.604-9.018 2.605-3.007 1.003-10.623 8.819-10.623 8.819l-4.107 19.24 13.714-1.4-11.315 12.575c10.757-2.076 20.965-4.76 20.965-4.76s-6.813 4.709-7.514 8.918c-.702 4.21 5.56 4.93 5.56 4.93s15.082-6.634 18.289-9.539c3.208-2.905 4.91-4.81 4.91-4.81s-1.202 7.115-2.605 9.02c-.814 1.105-9.976 7.902-20.76 13.64 6.686 7.169 15.503 15.254 21.863 16.02 5.464.66 10.485-.762 15.375-3.849-1.507 3.196-3.087 5.836-4.664 7.556-8.819 9.62-71.35 22.848-75.358 21.646-4.008-1.203-26.053-56.518-36.074-67.742-10.02-11.224-22.447-26.656-26.856-44.894-4.41-18.238-16.634-59.924-17.435-76.759-.801-16.836-6.212-69.145.803-82.373 7.014-13.227 37.534-5.638 37.534-5.638zm-4.804 128.263-.041-2.307 15.432-6.15 2.205 2.365s-8.818 7.335-17.596 6.092zm126.075 172.485s15.967-4.41 26.188-12.826c10.221-8.418 47.7-59.859 48.636-65.872.936-6.012 10.823-52.108 10.823-52.108s5.342 34.605 3.205 47.966c-2.139 13.362-16.568 50.772-16.835 53.98-.268 3.207 7.75 75.624 7.75 75.624s-33.936 85.511-42.487 89.252c-8.552 3.742-50.773 24.586-57.187 7.483-6.413-17.103-32.601-152.317-32.601-152.317zm-59.815-81.29c-4.004.294-10.29.817-15.484 1.516 3.804.202 9.522-.492 15.484-1.516zm-8.092 25.126c1.336.566 2.648.819 3.891.654 1.143-.152 2.561-.492 4.165-.968h-.001a120.42 120.42 0 0 1-8.055.314" />
  <path fill="#e8e8e8"
    d="M148.281 211.252s2.544-4.159 7.823-7.647c5.277-3.486 15.499-6.092 20.443-5.758 4.944.334 11.036 6.414 11.036 6.414s-7.899 7.899-20.791 9.895c-12.893 1.996-18.639-.141-18.639-.141zM42.588 237.991s2.055-8.419 4.81-10.923c2.755-2.505 17.582-5.744 20.143-5.612 2.56.133 10.222 2.003 10.872 3.056.651 1.052.788 5.91.788 5.91l-5.798 2.114s-9.019 1.645-10.874 2.548c-1.853.903-2.114 2.263-2.114 2.263s-10.16 1.496-14.268-.76c-4.11-2.255-3.559 1.404-3.559 1.404" />
  <path fill="#253854"
    d="m211.619 390.552 6.306-37.517 9.327 19.681c18.61-22.761 24.741-28.892 37.077-64.335 0 0-.6 22.046-4.008 30.263-3.406 8.217-39.192 67.19-47.038 74.457-7.848 7.268-36.936 17.335-36.936 17.335l-20.058 8.899s21.062 7.334 35.291 10.34c14.23 3.006 38.079-17.838 38.079-17.838s1.204 16.034-4.006 27.258c-5.212 11.222-15.633 26.854-20.042 27.657-4.41.801-24.852-12.827-24.852-12.827s2.405 24.852 4.81 36.476c2.406 11.624 11.223 33.27 11.223 33.27s-35.272-27.659-37.679-29.262c-2.404-1.604-32.868-86.981-32.868-86.981l39.683-22.848 45.69-14.028" />
  <path fill="#253854"
    d="M120.201 93.235s-6.573 17.957-32.388 27.257C62 129.791 37.79 117.607 37.79 117.607s6.252 6.573 10.742 8.497c0 0-9.78 10.261-8.336 22.127 1.442 11.864 7.776 41.205 7.776 41.205s-10.342 3.047-11.384 4.09c-1.042 1.04-3.688 5.931-3.688 5.931l35.033-7.216s16.515 6.976 17.317 8.419c.802 1.443 8.94 38.48 8.94 38.48s-7.576-3.205-8.177-3.888c-.601-.681-2.245-5.17-2.245-5.17l-4.37.842s-2.364-7.056-9.258-7.937c-6.894-.883-19.8 4.529-22.246 6.773-2.445 2.245-.2 10.021-.2 10.021l-3.288-1.042s-.921 3.566-.36 4.689c.562 1.123 12.827 5.05 24.131-.72l1.283 4.568s-6.174 5.96-19.482 3.555c0 0-2.137 16.997-1.174 21.806.961 4.811 13.214 31.123 20.908 30.964 8.928-.184 21.153-23.856 21.153-23.856s1.924-6.173 2.485-7.534c.562-1.364 2.564-5.212 2.564-5.212s2.004 5.45 2.406 7.536c.401 2.084-2.483 6.494-2.804 8.257-.322 1.764-.322 5.212.48 6.493.801 1.283 5.692.642 7.536 2.406 1.844 1.764 6.816 8.016 11.945 8.417 5.13.401 9.22-1.924 9.22-1.924s-3.048 3.528-4.09 4.09c-1.04.56 4.411 21.965 4.411 21.965s-6.253-.08-7.776-.08c-1.522 0-7.376 4.73-7.376 4.73s6.414-2.806 9.38-2.566c2.967.241 7.616 2.165 11.464.481 3.85-1.683 11.946-6.733 14.672-7.456 2.726-.721 25.092-2.965 31.024-4.97 5.934-2.003 6.255-2.886 6.735-2.405.481.482 1.043 4.008.401 4.49-.641.481-6.894 4.329-8.017 4.49-1.123.159-11.144 2.243-14.03 3.126-2.886.882-22.525 9.46-27.095 10.181-4.57.721-23.25 2.887-24.211 2.967-.961.08-1.36 4.329-.559 6.172.802 1.844 16.034 5.613 41.367-4.968l9.783 100.692s-18.279 1.602-31.747-3.528c-13.468-5.131-25.012-17.638-25.012-17.638l.481 4.491s-8.658-8.337-11.224-12.988c-2.565-4.65-16.994-35.915-17.797-40.724-.801-4.81-2.244-10.263-2.244-10.263s-16.032-28.056-25.33-52.106c-9.3-24.051-16.917-63.252-16.917-63.252l-2.565-6.574s-5.29-7.536-5.932-9.3c-.641-1.762-2.725-12.986-2.725-14.75 0-1.764 1.602-6.092 1.602-6.092s-6.732-28.055-8.496-53.067c-1.762-25.012 1.123-37.679 1.123-37.679l-6.413 7.696S1.972 33.08 105.228 10.632l-6.573-1.603s56.437-30.464 120.892 20.522l-33.35 29.502s-12.185-.321-23.889 6.735c-11.705 7.055-25.173 28.38-43.29 39.121zM36.445 230.852s-.08-3.847 1.042-5.53c1.122-1.686 8.257-5.853 10.662-6.014 2.406-.16 5.852 1.764 5.852 1.764s-9.7 1.363-17.556 9.78" />
  <path fill="#253854"
    d="M53.841 225s-1.682 10.503 6.574 12.347c0 0 5.853-.162 12.988-4.811 0 0 3.768-7.616-3.85-11.224C61.94 217.705 53.841 225 53.841 225m53.592-39.38s-1.604 7.416-1.404 8.519c.202 1.101 10.223 8.817 11.124 9.82.903 1.002 8.519 2.204 8.519 2.204s8.27-4.408 10.424-5.26c2.155-.852 9.62 4.158 9.62 4.158s-4.91 6.764-5.41 7.716c-.502.952.951 5.512 1.102 5.812.15.302 3.156-.45 4.659-1.052 1.504-.601 5.613-1.402 5.613-1.402s-.727-4.61-.476-5.36c.252-.752 10.973-7.464 15.183-8.518 4.209-1.052 12.877-1.602 15.833-1.302 2.957.301 5.363 3.306 5.363 3.306s7.564 1.054 8.416 1.154c.852.1 4.961-2.907 4.961-2.907s-8.619-4.259-10.572-5.06c-1.955-.803-13.679-2.256-19.19-1.555 0 0 5.71-4.208 9.118-5.009 3.408-.803 32.47 1.201 32.47 1.201s-15.231-19.741-29.66-20.342c-14.431-.602-70.349 15.732-70.349 15.732s.051 3.533.302 3.984c.25.452 3.005 4.209 3.005 4.209s-5.612-3.908-5.912-4.11c-.3-.2-2.739-5.938-2.739-5.938" />
  <path fill="#253854"
    d="M162.583 202.432s-1.754 8.267 4.209 11.724c0 0 10.223.501 15.684-6.213 0 0 1.452-4.559-1.003-8.067-2.456-3.507-18.89.552-18.89 2.556M128.52 291.27s3.056-5.062 5.06-6.063c2.005-1.003 9.97-1.554 9.97-1.554s-1.502 2.506-3.657 3.407c-2.154.903-4.458.55-5.761 1.152-1.303.603-5.612 3.057-5.612 3.057m-14.576 21.251 6.54-9.344s11.699-5.087 13.603-6.79c1.904-1.705 43.893-6.514 47.701-5.813 3.808.702 14.83 7.316 14.83 7.316l-4.307-7.917s9.822 4.008 13.229 12.627c3.407 8.617 14.03 57.32 16.837 71.549 2.806 14.23-5.812 32.868-8.818 38.48-3.007 5.61-17.638 13.828-17.638 13.828s-21.844 12.632-35.142 12.667c-13.3.034-15.763-27.698-15.763-27.698l5.98-72.994 6.143-2.112s8.117 12.025 21.745 10.922l-4.81-6.613s10.722.401 15.833-4.41c5.11-4.81 5.21-13.729 5.21-13.729s-3.21 5.563-5.816 7.567c0 0-.201-9.82-4.008-15.532-3.808-5.712-11.425-1.704-18.94-.201-7.516 1.504-23.5 2.506-26.305 3.609-2.807 1.101-9.77 5.712-11.725 6.312-1.954.601-3.306-.005-3.306-.005l-11.073-11.719m74.099-267.596-1.846 14.13s17.078 14.462 18.414 17.135c1.336 2.672 5.077 28.594 5.077 28.594l12.292 16.568-10.956-7.216 10.423 19.774s12.292 15.232 15.5 21.912c3.206 6.68 8.818 28.594 8.818 28.594l12.827 17.369s.267-33.937 14.697-36.877l3.74-5.611s-10.154-73.753-22.18-98.605c-12.025-24.852-35.302-31.14-35.302-31.14l-31.504 15.373" />
  <path style="fill:#253854;fill-opacity:1;fill-rule:evenodd"
    d="m292.027 321.23 4.81 48.1c-9.02 41.085-69.148 102.518-69.148 102.518s-22.649 33.068-23.65 35.072c-1 2.004-3.207 33.068-3.207 33.068s-14.428-11.423-17.234-14.43c-2.805-3.006-50.71-92.19-50.71-92.19l-11.624-4.411-18.067 19.889-85.35 46.45 183.99 156.425 266.155-234.088-129.347-27.41-4.38-6.864-16.497-16.44c-2.004 47.499-36.72 72.339-36.72 72.339l-6.066-9.055v-.002c7.302-10.366 14.255-20.858 19.141-29.59 11.477-20.516 10.488-43.79 9.363-66.36-.729-1.957-3.243-7.568-9.88-12.41z" />
  <path fill="#253854"
    d="M266.91 296.177s1.871-20.978 2.005-29.262c.133-8.284-2.94-48.367-2.94-48.367l8.284 28.86s8.017 6.012 15.232-.936c7.216-6.948 12.826-24.985 12.826-24.985s1.07 9.352-1.336 17.236c-2.404 7.882-6.681 18.305-8.552 20.844-1.869 2.538-4.676 3.874-4.676 3.874l5.852 58.4h.002l6.437 64.255-4.884 5.764-5.165-3.551-9.323-120.326-4.276 1.202s-1.47 9.62-2.405 11.892c-.935 2.271-7.08 15.1-7.08 15.1m7.349-78.693s-3.073-14.43 1.87-29.528c4.943-15.099 18.847-7.345 21.111 19.641 0 0-2.673-14.293-9.086-17.5-6.414-3.206-8.018 11.758-8.018 11.758 4.959 8.896 4.859 13.525-5.877 15.629" />
  <path fill="#253854"
    d="m256.42 162.441 5.883 15.41s-1.607 13.182 1.333 24.138c0 0 4.276-30.462 17.37-35.273 13.093-4.81 21.645 18.572 21.378 29.795 0 0 2.939-27.123-11.759-39.683-14.697-12.56-34.205 5.613-34.205 5.613" />
  <path fill="#b43c3c"
    d="m143.027 443.436 21.362 59.35s-7.226-3.714-10.032-9.191c-2.805-5.479-18.438-51.976-18.438-51.976l7.108 1.817M123.353 59.948s-7.069 15.399-15.554 23.099c-8.486 7.698-26.086 9.742-26.086 9.742s14.771-9.114 19.486-14.77c0 0-6.758 5.028-19.799 8.798-13.043 3.772-26.399 11.315-26.399 11.315s21.686-24.67 48.398-32.527c0 0-10.215 6.284-14.614 11.471 0 0 23.099-8.015 34.568-17.128m-95.67 30.379S35.205 45.19 80.88 35.412c0 0-19.775 11.499-26.223 20.525 0 0 21.28-16.441 59.752-16.012 0 0-29.23 9.456-37.613 16.55-8.383 7.093-29.876 16.98-29.876 16.98l12.681-12.682S37.25 69.8 27.683 90.327" />
  <path fill="#f1cd5f"
    d="M314.893 358.295c-2.004 47.498-33.47 76.963-33.47 76.963l-6.44-5.055v-.002c.943-1.34 1.854-2.676 2.783-4.015-17.32 24.994-37.955 50.683-37.955 50.683v.002l28.656 47.693s61.329-88.182 64.535-93.794c3.207-5.612 13.227-34.874 13.227-34.874l121.763 21.737-128.847-33.285-2.004-6.614-22.248-19.44zm24.644 6.709c1.107 1.403 1.785 2.336 1.885 2.637-.1-.301-.778-1.234-1.885-2.637zm1.885 2.637c.4 1.202.85 3.155 1.201 4.808-.35-1.653-.8-3.606-1.201-4.808zm-51.047 39.35c-.394.647-.823 1.319-1.232 1.978.41-.66.837-1.33 1.232-1.979zm-4.291 6.814zm-4.8 7.254c-.513.757-1.02 1.512-1.54 2.273.522-.763 1.026-1.514 1.54-2.273z" />
  <path fill="#b43c3c"
    d="M76.015 344.076s-1.283-11.865-.562-15.793c.722-3.93 7.456-8.098 7.456-8.098l-1.282 4.088s7.936-5.77 10.902-8.016c2.966-2.245 5.291-4.329 5.291-4.329s-7.296 11.064-9.62 13.87c-2.325 2.805-6.813 8.417-6.813 8.417l-.082-6.174s-4.569 5.612-5.29 16.035zm10.521 18.133s-.801 8.318.2 13.227c1.003 4.91 8.317 21.245 8.317 21.245l.703-7.516s5.512 16.735 9.319 21.144c3.809 4.41 14.73 10.322 14.73 10.322s-10.822-13.327-12.425-17.938c-1.603-4.609-5.01-22.346-5.01-22.346l-1.203 11.224s-6.112-6.915-7.916-11.726c-1.804-4.809-6.715-17.636-6.715-17.636m-1.984 93.399 13.95-6.895 21.107-17.933s-3.63 22.421-2.188 26.59c1.443 4.169 32.388 49.543 32.388 49.543l15.072 32.708-3.849 7.696-15.07-31.426-16.034 20.844s-7.055-8.336-7.055-10.582c0-2.245 7.376-14.75 7.376-14.75s-25.918-46.462-26.134-47.78c-.218-1.318-1.764-6.574-1.764-6.574l-84.503 38.247 66.704-39.688" />
  <path fill="#f1cd5f"
    d="m166.084 207.49 3.087-.842s1.362 2.885 5.17 2.524c3.808-.36 3.848-4.088 3.848-4.088h1.964s.131 4.121-2.861 5.908c-2.99 1.788-8.203 2.19-11.208-3.503M57.05 230.247l3.087-.842s1.364 2.886 5.171 2.524c3.81-.36 3.848-4.088 3.848-4.088h1.964s.13 4.122-2.86 5.908c-2.992 1.788-8.203 2.19-11.21-3.502" />
</svg>
