<svg version="1.1" id="Warstwa_1" xmlns="http://www.w3.org/2000/svg" xmlns:xlink="http://www.w3.org/1999/xlink" x="0px" y="0px" width="403px" height="135px" viewBox="0 0 403 135" enable-background="new 0 0 403 135" xml:space="preserve">
	<path fill-rule="evenodd" clip-rule="evenodd" fill="#182733" d="M77,0c2.823,0.771,5.646,1.545,8.471,2.311
	c31.925,8.648,52.713,38.889,49.416,71.886c-3.162,31.645-30.012,57.447-62.109,59.687c-33.017,2.305-62.917-19.039-70.791-50.48
	C1.524,81.552,0.671,79.799,0,78c0-7.333,0-14.667,0-22c0.522-1.144,1.229-2.238,1.54-3.437c7.109-27.43,24.595-44.29,51.943-51.173
	C54.695,1.085,55.83,0.471,57,0C63.667,0,70.333,0,77,0z M65.444,38.519c0.494,1.734,0.908,3.326,1.4,4.895
	c5.678,18.076,11.18,36.212,17.177,54.183c1.687,5.056,0.037,7.623-4.232,9.291c-3.057,1.195-6.281,1.962-9.824,3.039
	c0.595,3.547,1.179,7.025,1.777,10.596c14.796-0.848,25.49-7.035,30.281-20.577c7.037-19.893,13.252-40.075,19.792-60.142
	c0.142-0.436-0.028-0.973-0.066-1.711c-5.147,0-10.245,0-15.568,0c-4.049,15.551-8.051,30.922-12.054,46.293
	c-3.604-11.017-6.332-21.941-8.994-32.883c-3.597-14.784-3.575-14.79-18.7-13.49C66.28,38.025,66.137,38.158,65.444,38.519z
	 M63.798,43.058c-8.561-7.155-17.938-8.629-27.917-5.868C25.628,40.027,19.328,47.393,17.44,57.546
	c-1.186,6.381-1.187,13.331-0.025,19.718c1.788,9.834,8.032,16.805,17.912,19.545c10.129,2.809,19.657,1.425,28.428-5.577
	c-1.212-1.786-2.196-3.295-3.242-4.761c-1.127-1.58-2.311-3.118-3.479-4.687c-2.235,1.057-3.972,2.048-5.824,2.724
	c-9.034,3.298-16.521-0.579-17.724-9.992c-0.724-5.66-0.4-11.685,0.723-17.291c1.47-7.334,7.531-10.541,14.839-8.715
	c2.816,0.703,5.458,2.102,8.283,3.226c0.897-1.155,1.729-2.188,2.519-3.252C61.038,46.885,62.195,45.265,63.798,43.058z" />
	<path fill-rule="evenodd" clip-rule="evenodd" fill="#182733" d="M403,84c-9.936,16.318-35.956,19.303-49.321,5.32
	c2.387-2.652,4.795-5.329,6.838-7.6c4.795,1.698,9.029,3.565,13.458,4.62c2.453,0.584,5.543,0.48,7.77-0.555
	c2.053-0.954,4.374-3.434,4.637-5.49c0.221-1.721-1.946-4.644-3.786-5.549c-4.136-2.036-8.752-3.078-13.125-4.657
	c-5.146-1.857-9.609-4.649-11.962-9.891c-3.236-7.213-0.896-15.192,5.746-19.829c9.986-6.971,28.061-5.647,37.533,2.992
	c-1.769,2.667-3.571,5.387-5.319,8.022c-4.346-1.313-8.364-2.764-12.501-3.677c-2.021-0.446-4.479-0.413-6.342,0.359
	c-1.74,0.722-3.929,2.589-4.125,4.173c-0.191,1.547,1.503,4.114,3.054,4.925c3.347,1.751,7.1,2.765,10.743,3.896
	C393.498,63.301,399.76,66.682,403,74C403,77.333,403,80.667,403,84z" />
	<path fill-rule="evenodd" clip-rule="evenodd" fill="#182733" d="M160.854,93.373c0,8.52,0,16.728,0,25.452
	c-5.363,0.652-10.24,1.245-15.618,1.899c0-27.606,0-54.913,0-82.587c4.427,0,8.812,0,13.345,0c0.304,1.748,0.576,3.314,0.931,5.356
	c2.482-1.762,4.487-3.442,6.721-4.726c11.591-6.656,25.178-1.778,29.742,10.808c3.313,9.135,3.481,18.557,1.593,28.039
	C194.683,92.105,181.138,105.477,160.854,93.373z M160.708,67.778c0,3.155,0.157,6.32-0.035,9.464
	c-0.32,5.217,2.836,7.588,7.161,8.695c6.317,1.618,11.768-1.461,12.831-8.424c1.034-6.77,1.003-13.862,0.292-20.693
	c-0.692-6.646-4.75-9.516-10.309-9.025c-5.716,0.505-9.906,5.35-9.938,11.514C160.695,62.131,160.708,64.955,160.708,67.778z" />
	<path fill-rule="evenodd" clip-rule="evenodd" fill="#182733" d="M296.892,72.004c-12.722,0-24.657,0-36.61,0
	c0.94,14.528,10.754,17.902,28.177,9.709c2.007,2.572,4.094,5.248,6.483,8.313c-10.172,8.198-21.244,10.005-33.051,6.592
	c-10.787-3.117-16.411-11.36-17.618-22.026c-0.714-6.316-0.419-13.1,1.122-19.247c3.408-13.599,14.443-20.549,28.676-19.284
	c12.615,1.121,21.346,10.119,22.763,23.797C297.221,63.604,296.892,67.426,296.892,72.004z M281.094,61.649
	c0.189-5.431,0.127-10.878-5.021-13.311c-2.853-1.349-7.429-1.369-10.238,0.018c-5.085,2.51-5.302,8.066-5.729,13.293
	C267.391,61.649,274.117,61.649,281.094,61.649z" />
	<path fill-rule="evenodd" clip-rule="evenodd" fill="#182733" d="M347.601,43.041c-2.285,3.319-4.147,6.026-5.537,8.044
	c-5.403-1.343-10.142-2.946-15.007-3.577c-3.179-0.413-7.093-0.007-8.05,4.175c-1.007,4.402,2.545,5.653,5.716,6.811
	c4.679,1.707,9.505,3.041,14.095,4.952c6.705,2.792,10.716,7.768,10.754,15.322c0.038,7.658-3.889,12.858-10.516,16.184
	c-11.95,5.997-29.684,3.537-38.971-5.551c2.39-2.679,4.792-5.373,6.863-7.696c4.736,1.678,9.009,3.391,13.41,4.656
	c1.832,0.526,3.978,0.353,5.912,0.051c3.218-0.501,6.264-1.55,6.76-5.484c0.533-4.224-2.242-5.912-5.608-7.064
	c-4.396-1.506-8.913-2.721-13.188-4.515c-8.254-3.464-11.855-8.998-11.457-16.841c0.359-7.066,5.043-12.778,13.178-15.071
	C327.081,34.299,337.569,35.713,347.601,43.041z" />
	<path fill-rule="evenodd" clip-rule="evenodd" fill="#182733" d="M222.168,96.121c-5.615,0-10.395,0-15.559,0
	c0-19.31,0-38.356,0-57.878c4.361,0,8.719,0,13.396,0c0.461,2.757,0.921,5.519,1.584,9.497c4.833-8.917,11.047-13.854,21.293-10.649
	c-0.926,5.148-1.768,9.829-2.596,14.433c-12.899,0.06-18.033,5.32-18.109,18.237C222.128,78.379,222.168,86.998,222.168,96.121z" />
</svg>
