<svg version="1.1" id="Warstwa_1" xmlns="http://www.w3.org/2000/svg" xmlns:xlink="http://www.w3.org/1999/xlink" x="0px" y="0px" width="340px" height="380px" viewBox="0 0 340 380" enable-background="new 0 0 340 380" xml:space="preserve">
	<path fill-rule="evenodd" clip-rule="evenodd" fill="#474481" d="M341,347c-4.693,9.516-13.22,10.959-22.585,10.876
	c-11.483-0.103-22.97-0.143-34.451,0.041c-3.87,0.063-5.232-1.177-5.209-5.149c0.143-25.298,0.138-50.598,0.003-75.896
	c-0.021-3.869,1.067-5.213,5.098-5.136c12.645,0.245,25.298,0.189,37.946,0.059C330.941,271.7,337.919,274.708,341,284
	C341,305,341,326,341,347z M291.851,314.838c0,9.164-0.012,18.329,0.012,27.494c0.004,1.591-0.43,3.545,2.24,3.485
	c8.986-0.2,17.979,0.411,26.963-0.341c5.241-0.438,7.124-3.435,7.104-8.353c-0.061-14.997,0.035-29.994-0.055-44.991
	c-0.037-6.124-2.103-8.187-8.072-8.257c-8.164-0.097-16.335,0.141-24.493-0.105c-3.318-0.1-3.801,1.228-3.754,4.073
	C291.944,296.84,291.851,305.839,291.851,314.838z" />
	<path fill-rule="evenodd" clip-rule="evenodd" fill="#474581" d="M1,283c4.288-9.104,11.978-11.544,21.323-11.226
	c7.488,0.256,14.997-0.107,22.488,0.099c12.45,0.342,18.591,6.993,18.197,19.366c-0.121,3.773-8.485,8.42-11.779,6.543
	c-1.674-0.954-1.175-2.593-1.228-4.025c-0.307-8.379-1.806-9.88-10.052-9.9c-6.164-0.017-12.331-0.102-18.492,0.034
	c-5.091,0.111-7.468,2.28-7.512,7.31c-0.137,15.658-0.061,31.318-0.041,46.979c0.006,4.394,2.313,6.759,6.633,7.229
	c7.141,0.779,14.312,0.693,21.438,0.141c6.347-0.492,7.75-2.555,8.09-9.054c0.11-2.104-1.723-5.475,2.41-5.907
	c4.098-0.43,10.104,3.014,10.521,5.769c1.73,11.407-4.012,19.465-15.347,20.907c-9.771,1.244-19.614,0.579-29.431,0.358
	C10.375,357.446,4.832,353.633,1,347C1,325.667,1,304.333,1,283z" />
	<path fill-rule="evenodd" clip-rule="evenodd" fill="#E14329" d="M135.014,82.982c23.997,0.008,47.993,0.015,71.989,0.022
	l0.044,0.047c-0.042,3.777-2.088,6.97-3.19,10.417c-8.185,25.614-16.695,51.124-24.874,76.739c-2.416,7.567-5.501,14.943-6.981,22.8
	c0.135,0.436,0.271,0.871,0.406,1.308c0,0-0.082,0.048-0.083,0.047c-0.884,0-1.767,0.002-2.65,0.003c0,0-0.079-0.034-0.077-0.035
	c0.131-0.438,0.261-0.874,0.39-1.31c-0.273-1.286-0.433-2.609-0.837-3.853c-9.892-30.465-19.839-60.913-29.694-91.39
	c-1.579-4.882-3.737-9.595-4.502-14.727L135.014,82.982z" />
	<path fill-rule="evenodd" clip-rule="evenodd" fill="#FBA228" d="M258.697,82.948c3.624,10.998,7.337,21.967,10.82,33.008
	c1.206,3.822,0.97,7.52-2.775,10.229c-31.098,22.497-62.172,45.026-93.254,67.543c-0.122-0.278-0.288-0.524-0.497-0.741
	c0.67-1.142,1.221-2.379,2.03-3.412c13.468-17.199,27.022-34.332,40.447-51.564c14.237-18.274,28.358-36.64,42.53-54.965
	C258.225,82.974,258.458,82.941,258.697,82.948z" />
	<path fill-rule="evenodd" clip-rule="evenodd" fill="#FBA226" d="M166.73,192.268c-14.856-10.653-29.737-21.271-44.561-31.969
	c-14.982-10.811-29.913-21.692-44.855-32.56c-5.808-4.224-6.528-6.313-4.334-13.134c3.397-10.565,6.879-21.103,10.325-31.651
	c0.237-0.008,0.468,0.023,0.694,0.095c9.999,12.979,19.955,25.992,30.006,38.932c12.491,16.078,25.262,31.944,37.503,48.209
	c5.347,7.104,12.097,13.238,15.657,21.644C167.021,191.979,166.876,192.123,166.73,192.268z" />
	<path fill-rule="evenodd" clip-rule="evenodd" fill="#484581" d="M201.147,314.373c0-7.825-0.111-15.652,0.025-23.476
	c0.226-13.047,6.022-18.846,19.047-19.046c8.323-0.127,16.654-0.199,24.973,0.027c13.017,0.353,19.096,7.343,17.981,20.278
	c-0.266,3.078-5.493,6.166-10.055,5.882c-3.841-0.239-2.526-3.258-2.655-5.307c-0.443-7.021-2.183-8.819-9.12-8.868
	c-6.326-0.044-12.655-0.088-18.979,0.019c-5.593,0.094-8.066,2.289-8.123,7.849c-0.157,15.315-0.115,30.635-0.012,45.951
	c0.031,4.61,2.314,7.385,7.248,7.807c6.82,0.585,13.649,0.563,20.443,0.135c6.787-0.428,8.133-2.311,8.571-9.085
	c0.145-2.241-1.639-5.954,3.001-5.884c5.77,0.087,9.543,2.889,9.685,6.885c0.471,13.278-4.062,18.913-17.223,19.951
	c-10.1,0.797-20.296,1.045-30.393-0.354c-8.604-1.192-13.339-5.624-13.924-14.325c-0.634-9.44-0.144-18.956-0.144-28.438
	C201.376,314.373,201.262,314.373,201.147,314.373z" />
	<path fill-rule="evenodd" clip-rule="evenodd" fill="#494682" d="M102.421,314.739c0-8.998-0.114-17.999,0.063-26.994
	c0.06-3.042-0.844-4.103-3.932-3.947c-4.654,0.234-9.335-0.097-13.993,0.1c-5.454,0.229-4.46-3.532-4.598-6.793
	c-0.133-3.155,0.079-5.41,4.359-5.36c16.328,0.19,32.661,0.183,48.99,0.002c4.048-0.045,4.854,1.814,4.561,5.184
	c-0.27,3.096,1.225,7.138-4.393,6.959c-4.828-0.153-9.667,0.07-14.495-0.071c-2.591-0.075-3.892,0.389-3.869,3.486
	c0.135,18.329,0.125,36.66,0.009,54.989c-0.019,2.988,1.148,3.652,3.834,3.573c5.328-0.156,10.667,0.071,15.994-0.092
	c2.928-0.09,4.103,0.753,4.14,3.921c0.095,8.164,0.251,8.162-8.043,8.163c-15.664,0-31.332-0.183-46.99,0.105
	c-5.007,0.092-5.676-2.103-5.756-6.301c-0.085-4.459,1.086-6.388,5.884-5.933c4.459,0.422,9.005-0.139,13.484,0.161
	c3.658,0.244,4.972-0.778,4.844-4.66C102.222,332.409,102.421,323.571,102.421,314.739z" />
	<path fill-rule="evenodd" clip-rule="evenodd" fill="#E2452B" d="M83.999,83.049c-0.226-0.071-0.458-0.103-0.694-0.095
	c6.951-21.579,13.875-43.167,20.892-64.724c0.777-2.387,1.127-5.314,4.906-5.282c3.835,0.033,3.964,3.094,4.738,5.433
	c7.117,21.514,14.13,43.063,21.174,64.602l-0.06,0.069C117.969,83.051,100.984,83.05,83.999,83.049z" />
	<path fill-rule="evenodd" clip-rule="evenodd" fill="#E2452B" d="M258.697,82.948c-0.239-0.007-0.472,0.025-0.699,0.098
	c-16.983,0.002-33.967,0.004-50.951,0.006l-0.044-0.047c7.037-21.546,14.05-43.099,21.144-64.625
	c0.781-2.372,0.936-5.381,4.743-5.429c3.779-0.047,4.131,2.885,4.909,5.275C244.817,39.783,251.744,61.37,258.697,82.948z" />
	<path fill-rule="evenodd" clip-rule="evenodd" fill="#FBA42B" d="M172.516,298.793c4.27,4.386,8.551,8.762,12.806,13.162
	c2.107,2.18,1.579,4.481,0.281,6.85c-8.691,15.851-17.346,31.722-26.072,47.553c-0.551,0.999-0.87,2.991-2.69,2.111
	c-1.316-0.636-0.5-2.046-0.256-3.137c2.973-13.26,5.967-26.516,8.894-39.785c0.388-1.76,0.436-3.594,0.64-5.395
	c1.282-1.81,1.332-4.012,1.982-6.018C169.746,309.065,169.114,303.342,172.516,298.793z" />
	<path fill-rule="evenodd" clip-rule="evenodd" fill="#E2472E" d="M172.516,298.793c-3.402,4.549-2.771,10.272-4.416,15.342
	c-0.651,2.006-0.7,4.208-1.982,6.018c-4.12-4.327-8.228-8.669-12.368-12.979c-2-2.082-2.209-4.265-0.822-6.795
	c8.857-16.153,17.667-32.334,26.511-48.495c0.454-0.829,0.904-2.207,2.045-1.771c1.793,0.686,0.797,2.293,0.538,3.467
	c-2.831,12.801-5.749,25.583-8.564,38.387C172.966,294.202,171.973,296.402,172.516,298.793z" />
	<path fill-rule="evenodd" clip-rule="evenodd" fill="#FBA228" d="M169.674,194.365c0.883-0.001,1.766-0.003,2.65-0.003
	C171.443,195.936,170.56,195.937,169.674,194.365z" />
	<path fill-rule="evenodd" clip-rule="evenodd" fill="#FBA226" d="M167.835,193.064c-0.368-0.266-0.736-0.532-1.104-0.798
	c0.145-0.144,0.29-0.288,0.432-0.432c0.614,0.388,1.229,0.774,1.845,1.161C168.618,193.019,168.227,193.042,167.835,193.064z" />
	<path fill-rule="evenodd" clip-rule="evenodd" fill="#FBA228" d="M167.835,193.064c0.391-0.022,0.782-0.046,1.173-0.068
	c0.327,0.008,0.653,0.016,0.979,0.024c-0.129,0.436-0.259,0.872-0.39,1.31C168.796,194.205,168.166,193.843,167.835,193.064z" />
	<path fill-rule="evenodd" clip-rule="evenodd" fill="#FBA228" d="M172.408,194.315c-0.135-0.437-0.271-0.872-0.406-1.308
	c0.33-0.007,0.659-0.014,0.989-0.021c0.209,0.217,0.375,0.463,0.497,0.741C173.128,193.926,172.768,194.12,172.408,194.315z" />
	<path fill-rule="evenodd" clip-rule="evenodd" fill="#FB6D26" d="M169.987,193.021c-0.326-0.009-0.652-0.017-0.979-0.024
	c-0.615-0.387-1.23-0.773-1.845-1.161c-3.558-8.407-10.308-14.542-15.655-21.646c-12.242-16.265-25.013-32.131-37.503-48.209
	c-10.052-12.939-20.008-25.952-30.006-38.932c16.985,0.001,33.97,0.002,50.955,0.003c0.765,5.132,2.923,9.845,4.502,14.727
	c9.855,30.477,19.802,60.925,29.694,91.39C169.554,190.411,169.714,191.734,169.987,193.021z" />
	<path fill-rule="evenodd" clip-rule="evenodd" fill="#FB6D26" d="M172.991,192.987c-0.33,0.007-0.659,0.014-0.989,0.021
	c1.48-7.856,4.565-15.232,6.981-22.8c8.179-25.615,16.689-51.125,24.874-76.739c1.102-3.447,3.148-6.64,3.19-10.417
	c16.983-0.002,33.967-0.004,50.951-0.006c-14.172,18.325-28.293,36.69-42.53,54.965c-13.425,17.232-26.979,34.365-40.447,51.564
	C174.211,190.608,173.661,191.846,172.991,192.987z" />
</svg>
